<?xml version="1.0" standalone="no"?>
<!DOCTYPE svg PUBLIC "-//W3C//DTD SVG 20010904//EN"
 "http://www.w3.org/TR/2001/REC-SVG-20010904/DTD/svg10.dtd">
<svg version="1.0" xmlns="http://www.w3.org/2000/svg"
 width="700.000000pt" height="700.000000pt" viewBox="0 0 700.000000 700.000000"
 preserveAspectRatio="xMidYMid meet">
<metadata>
Created by potrace 1.14, written by Peter Selinger 2001-2017
</metadata>
<g transform="translate(0.000000,700.000000) scale(0.100000,-0.100000)"
fill="#000000" stroke="none">
<path d="M3260 6554 c-19 -2 -78 -9 -130 -15 -379 -42 -788 -178 -1159 -383
l-64 -36 -513 0 -513 0 -3 -522 -3 -523 -58 -101 c-166 -290 -289 -656 -350
-1044 -18 -115 -21 -179 -21 -430 0 -251 3 -315 21 -430 75 -477 225 -872 477
-1255 450 -683 1170 -1166 1964 -1319 237 -45 304 -51 602 -50 238 0 307 4
420 21 387 61 754 184 1044 350 l101 58 523 3 522 3 0 513 0 513 36 64 c200
362 319 712 381 1124 27 183 25 650 -4 835 -85 542 -274 994 -590 1413 -488
648 -1189 1063 -2008 1189 -98 15 -193 20 -385 23 -140 2 -271 1 -290 -1z
m680 -1304 l0 -440 875 0 875 0 0 -435 0 -435 -725 -870 c-399 -478 -725 -872
-725 -875 0 -3 326 -5 725 -5 l725 0 0 -440 0 -440 -1315 0 -1315 0 0 440 0
440 -875 0 -875 0 0 435 0 435 725 870 c399 478 725 872 725 875 0 3 -326 5
-725 5 l-725 0 0 440 0 440 1315 0 1315 0 0 -440z"/>
<path d="M2859 3518 c-194 -233 -359 -431 -367 -440 -14 -17 17 -18 641 -18
l657 0 351 423 c194 232 359 430 367 440 14 16 -17 17 -641 17 l-657 0 -351
-422z"/>
</g>
</svg>
